<svg width="17" height="17" viewBox="0 0 17 17" fill="none" xmlns="http://www.w3.org/2000/svg">
<path fill-rule="evenodd" clip-rule="evenodd" d="M12.0725 4.34837H14.3971C14.9454 4.34837 15.3683 4.83133 15.2958 5.37487L14.0727 14.5482C14.0126 14.9986 13.6284 15.335 13.174 15.335H3.30753C2.8531 15.335 2.46887 14.9986 2.40881 14.5482L1.1857 5.37487C1.11323 4.83134 1.53607 4.34837 2.08441 4.34837H4.40894C4.73595 2.52889 6.32711 1.1483 8.24073 1.1483C10.1543 1.1483 11.7455 2.52889 12.0725 4.34837ZM4.3474 5.73504H2.63266L3.72777 13.9484H12.7537L13.8488 5.73504H12.1341V7.17497H10.7474V5.73504H5.73406V7.17497H4.3474V5.73504ZM5.83116 4.34837H10.6503C10.3496 3.30118 9.38462 2.53497 8.24073 2.53497C7.09684 2.53497 6.1319 3.30118 5.83116 4.34837Z" fill="white"/>
</svg>
